<svg width="171" height="201" viewBox="0 0 171 201" fill="none" xmlns="http://www.w3.org/2000/svg">
<path d="M74.7025 42.425C75.3114 40.3485 77.2164 38.9219 79.3804 38.9219H88.2517C88.894 38.9219 89.3608 39.5321 89.1927 40.152L77.2807 84.0711C76.7046 86.1952 74.7767 87.6698 72.5759 87.6698H65.9277C63.7289 87.6698 61.8022 86.1978 61.2243 84.0763L57.2066 69.3284L60.8433 70.7702C63.5109 71.8278 66.5104 70.3639 67.3178 67.6102L74.7025 42.425Z" fill="white"/>
<path d="M55.5205 63.3069C60.4909 61.9749 63.4406 56.8652 62.1088 51.8941C60.777 46.9231 55.6679 43.973 50.6974 45.305L55.5205 63.3069Z" fill="white"/>
<path d="M95.4068 102.356C94.7979 104.433 92.893 105.86 90.729 105.86L81.8577 105.86C81.2154 105.86 80.7486 105.249 80.9167 104.629L92.8287 60.7104C93.4048 58.5863 95.3327 57.1116 97.5335 57.1116L104.182 57.1116C106.381 57.1116 108.307 58.5836 108.885 60.7051L112.903 75.453L109.266 74.0112C106.598 72.9536 103.599 74.4175 102.792 77.1712L95.4068 102.356Z" fill="white"/>
<path d="M114.589 81.4747C109.618 82.8067 106.669 87.9163 108.001 92.8874C109.332 97.8585 114.441 100.809 119.412 99.4766L114.589 81.4747Z" fill="white"/>
<path d="M47.9057 132.785C47.642 132.785 47.4326 132.715 47.2775 132.575C47.1223 132.436 47.0138 132.273 46.9517 132.087L42.2051 117.195C42.174 117.118 42.1585 117.048 42.1585 116.986C42.1585 116.862 42.2051 116.753 42.2981 116.66C42.4067 116.552 42.5308 116.497 42.6704 116.497H45.5556C45.8038 116.497 45.9977 116.567 46.1373 116.707C46.2769 116.846 46.3622 116.978 46.3933 117.102L49.6973 127.852L52.9781 117.102C53.0246 116.978 53.1099 116.846 53.234 116.707C53.3736 116.567 53.5675 116.497 53.8157 116.497H56.7242C56.8483 116.497 56.9569 116.552 57.05 116.66C57.1585 116.753 57.2128 116.862 57.2128 116.986C57.2128 117.048 57.1973 117.118 57.1663 117.195L52.4197 132.087C52.3731 132.273 52.2723 132.436 52.1172 132.575C51.9621 132.715 51.7449 132.785 51.4657 132.785H47.9057Z" fill="white"/>
<path d="M63.4637 133.018C61.6333 133.018 60.1752 132.521 59.0894 131.528C58.0035 130.536 57.4373 129.062 57.3908 127.108C57.3908 126.999 57.3908 126.859 57.3908 126.689C57.3908 126.518 57.3908 126.386 57.3908 126.293C57.4373 125.068 57.7088 124.021 58.2052 123.152C58.7171 122.268 59.4151 121.601 60.2993 121.151C61.199 120.686 62.246 120.453 63.4405 120.453C64.8055 120.453 65.9301 120.724 66.8143 121.267C67.714 121.81 68.3888 122.547 68.8386 123.478C69.2884 124.408 69.5134 125.471 69.5134 126.665V127.224C69.5134 127.394 69.4591 127.534 69.3505 127.643C69.2419 127.751 69.1023 127.806 68.9317 127.806H61.486C61.486 127.821 61.486 127.844 61.486 127.875C61.486 127.906 61.486 127.937 61.486 127.968C61.5015 128.418 61.579 128.829 61.7186 129.202C61.8737 129.574 62.0909 129.869 62.3701 130.086C62.6649 130.303 63.0216 130.412 63.4405 130.412C63.7507 130.412 64.0066 130.365 64.2083 130.272C64.4255 130.163 64.6038 130.047 64.7435 129.923C64.8831 129.783 64.9916 129.667 65.0692 129.574C65.2088 129.403 65.3174 129.302 65.395 129.271C65.488 129.225 65.6276 129.202 65.8138 129.202H68.699C68.8541 129.202 68.9782 129.248 69.0713 129.341C69.1799 129.434 69.2264 129.558 69.2109 129.714C69.1954 129.977 69.0635 130.295 68.8153 130.668C68.5671 131.04 68.2026 131.412 67.7217 131.784C67.2564 132.141 66.6669 132.436 65.9534 132.669C65.2398 132.901 64.4099 133.018 63.4637 133.018ZM61.486 125.502H65.4182V125.456C65.4182 124.944 65.3407 124.509 65.1855 124.153C65.0459 123.78 64.821 123.493 64.5108 123.292C64.2161 123.09 63.8593 122.989 63.4405 122.989C63.0371 122.989 62.6881 123.09 62.3934 123.292C62.0987 123.493 61.8737 123.78 61.7186 124.153C61.5635 124.509 61.486 124.944 61.486 125.456V125.502Z" fill="white"/>
<path d="M72.2764 132.785C72.1058 132.785 71.9662 132.731 71.8576 132.622C71.749 132.498 71.6947 132.358 71.6947 132.203V121.267C71.6947 121.112 71.749 120.98 71.8576 120.872C71.9662 120.748 72.1058 120.686 72.2764 120.686H74.9522C75.1229 120.686 75.2625 120.748 75.3711 120.872C75.4952 120.98 75.5572 121.112 75.5572 121.267V122.198C75.9605 121.717 76.4491 121.345 77.0231 121.081C77.6125 120.817 78.2718 120.686 79.0009 120.686H80.0246C80.1953 120.686 80.3349 120.74 80.4435 120.848C80.552 120.957 80.6063 121.097 80.6063 121.267V123.664C80.6063 123.819 80.552 123.959 80.4435 124.083C80.3349 124.191 80.1953 124.246 80.0246 124.246H77.7677C77.1317 124.246 76.6353 124.424 76.2785 124.781C75.9372 125.122 75.7666 125.611 75.7666 126.247V132.203C75.7666 132.358 75.7046 132.498 75.5805 132.622C75.4719 132.731 75.3323 132.785 75.1617 132.785H72.2764Z" fill="white"/>
<path d="M82.8424 132.785C82.6718 132.785 82.5322 132.731 82.4236 132.622C82.315 132.498 82.2607 132.358 82.2607 132.203V121.267C82.2607 121.097 82.315 120.957 82.4236 120.848C82.5322 120.74 82.6718 120.686 82.8424 120.686H85.588C85.7587 120.686 85.8983 120.74 86.0069 120.848C86.1154 120.957 86.1697 121.097 86.1697 121.267V132.203C86.1697 132.358 86.1154 132.498 86.0069 132.622C85.8983 132.731 85.7587 132.785 85.588 132.785H82.8424ZM82.8192 118.94C82.6485 118.94 82.5089 118.886 82.4003 118.778C82.2917 118.669 82.2375 118.529 82.2375 118.359V116.265C82.2375 116.11 82.2917 115.978 82.4003 115.869C82.5089 115.745 82.6485 115.683 82.8192 115.683H85.6113C85.7664 115.683 85.8983 115.745 86.0069 115.869C86.1309 115.978 86.193 116.11 86.193 116.265V118.359C86.193 118.529 86.1309 118.669 86.0069 118.778C85.8983 118.886 85.7664 118.94 85.6113 118.94H82.8192Z" fill="white"/>
<path d="M90.8729 132.785C90.7178 132.785 90.5782 132.731 90.4541 132.622C90.3455 132.498 90.2912 132.358 90.2912 132.203V123.734H88.5229C88.3522 123.734 88.2126 123.679 88.1041 123.571C87.9955 123.462 87.9412 123.323 87.9412 123.152V121.267C87.9412 121.097 87.9955 120.957 88.1041 120.848C88.2126 120.74 88.3522 120.686 88.5229 120.686H90.2912V119.941C90.2912 118.886 90.4929 118.041 90.8962 117.405C91.315 116.753 91.9045 116.288 92.6646 116.009C93.4246 115.714 94.3321 115.567 95.3869 115.567H97.2018C97.3724 115.567 97.512 115.621 97.6206 115.73C97.7292 115.838 97.7835 115.978 97.7835 116.148V118.033C97.7835 118.204 97.7292 118.343 97.6206 118.452C97.512 118.56 97.3724 118.615 97.2018 118.615H95.573C95.0456 118.615 94.6734 118.739 94.4562 118.987C94.2545 119.235 94.1537 119.592 94.1537 120.057V120.686H96.9691C97.1397 120.686 97.2794 120.74 97.3879 120.848C97.4965 120.957 97.5508 121.097 97.5508 121.267V123.152C97.5508 123.323 97.4965 123.462 97.3879 123.571C97.2794 123.679 97.1397 123.734 96.9691 123.734H94.1537V132.203C94.1537 132.358 94.0994 132.498 93.9908 132.622C93.8822 132.731 93.7426 132.785 93.572 132.785H90.8729Z" fill="white"/>
<path d="M99.8162 132.785C99.6455 132.785 99.5059 132.731 99.3973 132.622C99.2888 132.498 99.2345 132.358 99.2345 132.203V121.267C99.2345 121.097 99.2888 120.957 99.3973 120.848C99.5059 120.74 99.6455 120.686 99.8162 120.686H102.562C102.732 120.686 102.872 120.74 102.981 120.848C103.089 120.957 103.143 121.097 103.143 121.267V132.203C103.143 132.358 103.089 132.498 102.981 132.622C102.872 132.731 102.732 132.785 102.562 132.785H99.8162ZM99.7929 118.94C99.6223 118.94 99.4827 118.886 99.3741 118.778C99.2655 118.669 99.2112 118.529 99.2112 118.359V116.265C99.2112 116.11 99.2655 115.978 99.3741 115.869C99.4827 115.745 99.6223 115.683 99.7929 115.683H102.585C102.74 115.683 102.872 115.745 102.981 115.869C103.105 115.978 103.167 116.11 103.167 116.265V118.359C103.167 118.529 103.105 118.669 102.981 118.778C102.872 118.886 102.74 118.94 102.585 118.94H99.7929Z" fill="white"/>
<path d="M111.476 133.018C109.646 133.018 108.188 132.521 107.102 131.528C106.016 130.536 105.45 129.062 105.404 127.108C105.404 126.999 105.404 126.859 105.404 126.689C105.404 126.518 105.404 126.386 105.404 126.293C105.45 125.068 105.722 124.021 106.218 123.152C106.73 122.268 107.428 121.601 108.312 121.151C109.212 120.686 110.259 120.453 111.453 120.453C112.818 120.453 113.943 120.724 114.827 121.267C115.727 121.81 116.402 122.547 116.851 123.478C117.301 124.408 117.526 125.471 117.526 126.665V127.224C117.526 127.394 117.472 127.534 117.363 127.643C117.255 127.751 117.115 127.806 116.944 127.806H109.499C109.499 127.821 109.499 127.844 109.499 127.875C109.499 127.906 109.499 127.937 109.499 127.968C109.514 128.418 109.592 128.829 109.731 129.202C109.886 129.574 110.104 129.869 110.383 130.086C110.678 130.303 111.034 130.412 111.453 130.412C111.763 130.412 112.019 130.365 112.221 130.272C112.438 130.163 112.617 130.047 112.756 129.923C112.896 129.783 113.004 129.667 113.082 129.574C113.222 129.403 113.33 129.302 113.408 129.271C113.501 129.225 113.64 129.202 113.827 129.202H116.712C116.867 129.202 116.991 129.248 117.084 129.341C117.193 129.434 117.239 129.558 117.224 129.714C117.208 129.977 117.076 130.295 116.828 130.668C116.58 131.04 116.215 131.412 115.734 131.784C115.269 132.141 114.68 132.436 113.966 132.669C113.253 132.901 112.423 133.018 111.476 133.018ZM109.499 125.502H113.431V125.456C113.431 124.944 113.353 124.509 113.198 124.153C113.059 123.78 112.834 123.493 112.524 123.292C112.229 123.09 111.872 122.989 111.453 122.989C111.05 122.989 110.701 123.09 110.406 123.292C110.111 123.493 109.886 123.78 109.731 124.153C109.576 124.509 109.499 124.944 109.499 125.456V125.502Z" fill="white"/>
<path d="M120.289 132.785C120.119 132.785 119.979 132.731 119.87 132.622C119.762 132.498 119.707 132.358 119.707 132.203V121.267C119.707 121.112 119.762 120.98 119.87 120.872C119.979 120.748 120.119 120.686 120.289 120.686H122.965C123.136 120.686 123.275 120.748 123.384 120.872C123.508 120.98 123.57 121.112 123.57 121.267V122.198C123.973 121.717 124.462 121.345 125.036 121.081C125.625 120.817 126.285 120.686 127.014 120.686H128.037C128.208 120.686 128.348 120.74 128.456 120.848C128.565 120.957 128.619 121.097 128.619 121.267V123.664C128.619 123.819 128.565 123.959 128.456 124.083C128.348 124.191 128.208 124.246 128.037 124.246H125.78C125.144 124.246 124.648 124.424 124.291 124.781C123.95 125.122 123.779 125.611 123.779 126.247V132.203C123.779 132.358 123.717 132.498 123.593 132.622C123.485 132.731 123.345 132.785 123.174 132.785H120.289Z" fill="white"/>
<path d="M39.5379 160.189C39.4138 160.189 39.2974 160.143 39.1889 160.05C39.0958 159.941 39.0493 159.825 39.0493 159.701C39.0493 159.623 39.057 159.553 39.0725 159.491L44.5405 144.553C44.587 144.383 44.6801 144.235 44.8197 144.111C44.9748 143.972 45.1842 143.902 45.4479 143.902H48.8916C49.1553 143.902 49.3569 143.972 49.4965 144.111C49.6517 144.235 49.7525 144.383 49.799 144.553L55.2437 159.491C55.2747 159.553 55.2902 159.623 55.2902 159.701C55.2902 159.825 55.2359 159.941 55.1274 160.05C55.0343 160.143 54.918 160.189 54.7783 160.189H51.9164C51.6837 160.189 51.5053 160.135 51.3812 160.026C51.2727 159.902 51.2028 159.794 51.1718 159.701L50.2644 157.327H44.0519L43.1677 159.701C43.1366 159.794 43.0668 159.902 42.9583 160.026C42.8497 160.135 42.6635 160.189 42.3998 160.189H39.5379ZM45.0058 153.977H49.3337L47.1697 147.834L45.0058 153.977Z" fill="white"/>
<path d="M57.45 160.189C57.2793 160.189 57.1397 160.135 57.0312 160.026C56.9226 159.902 56.8683 159.763 56.8683 159.608V144.251C56.8683 144.08 56.9226 143.941 57.0312 143.832C57.1397 143.723 57.2793 143.669 57.45 143.669H60.1956C60.3662 143.669 60.5058 143.723 60.6144 143.832C60.723 143.941 60.7773 144.08 60.7773 144.251V159.608C60.7773 159.763 60.723 159.902 60.6144 160.026C60.5058 160.135 60.3662 160.189 60.1956 160.189H57.45Z" fill="white"/>
<path d="M64.1077 160.189C63.937 160.189 63.7974 160.135 63.6889 160.026C63.5803 159.902 63.526 159.763 63.526 159.608V144.251C63.526 144.08 63.5803 143.941 63.6889 143.832C63.7974 143.723 63.937 143.669 64.1077 143.669H66.8533C67.0239 143.669 67.1635 143.723 67.2721 143.832C67.3807 143.941 67.435 144.08 67.435 144.251V159.608C67.435 159.763 67.3807 159.902 67.2721 160.026C67.1635 160.135 67.0239 160.189 66.8533 160.189H64.1077Z" fill="white"/>
<path d="M70.7654 160.189C70.5948 160.189 70.4551 160.135 70.3466 160.026C70.238 159.902 70.1837 159.763 70.1837 159.608V148.672C70.1837 148.501 70.238 148.361 70.3466 148.253C70.4551 148.144 70.5948 148.09 70.7654 148.09H73.511C73.6816 148.09 73.8212 148.144 73.9298 148.253C74.0384 148.361 74.0927 148.501 74.0927 148.672V159.608C74.0927 159.763 74.0384 159.902 73.9298 160.026C73.8212 160.135 73.6816 160.189 73.511 160.189H70.7654ZM70.7421 146.345C70.5715 146.345 70.4319 146.291 70.3233 146.182C70.2147 146.073 70.1604 145.934 70.1604 145.763V143.669C70.1604 143.514 70.2147 143.382 70.3233 143.274C70.4319 143.149 70.5715 143.087 70.7421 143.087H73.5343C73.6894 143.087 73.8212 143.149 73.9298 143.274C74.0539 143.382 74.116 143.514 74.116 143.669V145.763C74.116 145.934 74.0539 146.073 73.9298 146.182C73.8212 146.291 73.6894 146.345 73.5343 146.345H70.7421Z" fill="white"/>
<path d="M80.4712 160.422C79.6335 160.422 78.8812 160.267 78.2142 159.957C77.5627 159.631 77.043 159.197 76.6553 158.654C76.2675 158.111 76.0736 157.498 76.0736 156.815C76.0736 155.714 76.5234 154.845 77.4231 154.209C78.3228 153.558 79.5172 153.116 81.0063 152.883L83.9148 152.441V152.115C83.9148 151.557 83.7985 151.13 83.5658 150.836C83.3331 150.541 82.9066 150.394 82.2861 150.394C81.8517 150.394 81.495 150.479 81.2158 150.649C80.9521 150.82 80.7426 151.053 80.5875 151.347C80.4479 151.549 80.254 151.65 80.0058 151.65H77.3998C77.2292 151.65 77.0973 151.603 77.0043 151.51C76.9112 151.402 76.8724 151.278 76.8879 151.138C76.8879 150.859 76.9888 150.541 77.1904 150.184C77.4076 149.812 77.7333 149.447 78.1677 149.091C78.602 148.734 79.1604 148.439 79.843 148.206C80.5255 147.974 81.3554 147.857 82.3326 147.857C83.3254 147.857 84.1785 147.974 84.8921 148.206C85.6056 148.439 86.1873 148.765 86.6372 149.184C87.087 149.602 87.4128 150.099 87.6144 150.673C87.8316 151.231 87.9402 151.852 87.9402 152.534V159.608C87.9402 159.763 87.8781 159.902 87.754 160.026C87.6455 160.135 87.5136 160.189 87.3585 160.189H84.6594C84.4888 160.189 84.3492 160.135 84.2406 160.026C84.132 159.902 84.0777 159.763 84.0777 159.608V158.793C83.8761 159.088 83.6046 159.359 83.2633 159.608C82.9221 159.856 82.5188 160.05 82.0534 160.189C81.6036 160.344 81.0761 160.422 80.4712 160.422ZM81.5648 157.769C82.0146 157.769 82.4179 157.676 82.7747 157.49C83.147 157.289 83.434 156.986 83.6356 156.583C83.8528 156.164 83.9614 155.644 83.9614 155.024V154.698L81.9836 155.047C81.2545 155.171 80.7194 155.365 80.3781 155.629C80.0524 155.877 79.8895 156.172 79.8895 156.513C79.8895 156.777 79.967 157.002 80.1222 157.188C80.2773 157.374 80.4789 157.521 80.7271 157.63C80.9908 157.723 81.27 157.769 81.5648 157.769Z" fill="white"/>
<path d="M91.1475 160.189C90.9769 160.189 90.8373 160.135 90.7287 160.026C90.6201 159.902 90.5658 159.763 90.5658 159.608V148.672C90.5658 148.501 90.6201 148.361 90.7287 148.253C90.8373 148.144 90.9769 148.09 91.1475 148.09H93.8233C93.9939 148.09 94.1336 148.144 94.2421 148.253C94.3662 148.361 94.4283 148.501 94.4283 148.672V149.556C94.8161 149.075 95.3357 148.672 95.9872 148.346C96.6387 148.02 97.4066 147.857 98.2908 147.857C99.1904 147.857 99.9815 148.059 100.664 148.462C101.362 148.866 101.905 149.455 102.293 150.231C102.696 151.006 102.898 151.968 102.898 153.116V159.608C102.898 159.763 102.844 159.902 102.735 160.026C102.626 160.135 102.487 160.189 102.316 160.189H99.3843C99.2292 160.189 99.0896 160.135 98.9655 160.026C98.8569 159.902 98.8026 159.763 98.8026 159.608V153.255C98.8026 152.526 98.6243 151.968 98.2675 151.58C97.9262 151.177 97.4143 150.975 96.7318 150.975C96.0958 150.975 95.5839 151.177 95.1961 151.58C94.8238 151.968 94.6377 152.526 94.6377 153.255V159.608C94.6377 159.763 94.5756 159.902 94.4515 160.026C94.343 160.135 94.2111 160.189 94.056 160.189H91.1475Z" fill="white"/>
<path d="M111.078 160.422C109.93 160.422 108.914 160.213 108.03 159.794C107.146 159.375 106.44 158.77 105.913 157.979C105.401 157.172 105.122 156.21 105.075 155.094C105.06 154.845 105.052 154.535 105.052 154.163C105.052 153.775 105.06 153.457 105.075 153.209C105.122 152.077 105.401 151.115 105.913 150.324C106.425 149.517 107.123 148.904 108.007 148.486C108.907 148.067 109.93 147.857 111.078 147.857C112.149 147.857 113.064 148.012 113.824 148.323C114.599 148.617 115.22 148.99 115.685 149.44C116.166 149.889 116.523 150.355 116.756 150.836C117.004 151.301 117.136 151.712 117.151 152.069C117.167 152.224 117.112 152.364 116.988 152.488C116.864 152.596 116.725 152.65 116.569 152.65H113.614C113.444 152.65 113.312 152.612 113.219 152.534C113.126 152.457 113.041 152.34 112.963 152.185C112.777 151.704 112.536 151.363 112.242 151.161C111.962 150.96 111.598 150.859 111.148 150.859C110.528 150.859 110.047 151.061 109.705 151.464C109.38 151.867 109.201 152.488 109.17 153.325C109.155 153.946 109.155 154.496 109.17 154.977C109.217 155.83 109.403 156.451 109.729 156.839C110.054 157.227 110.528 157.42 111.148 157.42C111.629 157.42 112.009 157.32 112.288 157.118C112.567 156.901 112.792 156.559 112.963 156.094C113.041 155.939 113.126 155.823 113.219 155.745C113.312 155.668 113.444 155.629 113.614 155.629H116.569C116.725 155.629 116.864 155.683 116.988 155.792C117.112 155.9 117.167 156.04 117.151 156.21C117.136 156.459 117.058 156.761 116.919 157.118C116.779 157.475 116.562 157.847 116.267 158.235C115.972 158.623 115.584 158.979 115.104 159.305C114.638 159.631 114.072 159.902 113.405 160.119C112.738 160.321 111.962 160.422 111.078 160.422Z" fill="white"/>
<path d="M124.826 160.422C122.996 160.422 121.537 159.926 120.452 158.933C119.366 157.94 118.8 156.466 118.753 154.512C118.753 154.403 118.753 154.264 118.753 154.093C118.753 153.922 118.753 153.791 118.753 153.698C118.8 152.472 119.071 151.425 119.567 150.556C120.079 149.672 120.777 149.005 121.662 148.555C122.561 148.09 123.608 147.857 124.803 147.857C126.168 147.857 127.292 148.129 128.177 148.672C129.076 149.215 129.751 149.951 130.201 150.882C130.651 151.813 130.876 152.875 130.876 154.07V154.628C130.876 154.799 130.821 154.939 130.713 155.047C130.604 155.156 130.465 155.21 130.294 155.21H122.848C122.848 155.225 122.848 155.249 122.848 155.28C122.848 155.311 122.848 155.342 122.848 155.373C122.864 155.823 122.941 156.234 123.081 156.606C123.236 156.978 123.453 157.273 123.732 157.49C124.027 157.707 124.384 157.816 124.803 157.816C125.113 157.816 125.369 157.769 125.571 157.676C125.788 157.568 125.966 157.451 126.106 157.327C126.245 157.188 126.354 157.071 126.431 156.978C126.571 156.808 126.68 156.707 126.757 156.676C126.85 156.629 126.99 156.606 127.176 156.606H130.061C130.216 156.606 130.34 156.653 130.434 156.746C130.542 156.839 130.589 156.963 130.573 157.118C130.558 157.382 130.426 157.7 130.178 158.072C129.929 158.444 129.565 158.816 129.084 159.189C128.619 159.546 128.029 159.84 127.316 160.073C126.602 160.306 125.772 160.422 124.826 160.422ZM122.848 152.906H126.78V152.86C126.78 152.348 126.703 151.914 126.548 151.557C126.408 151.185 126.183 150.898 125.873 150.696C125.578 150.494 125.222 150.394 124.803 150.394C124.399 150.394 124.05 150.494 123.756 150.696C123.461 150.898 123.236 151.185 123.081 151.557C122.926 151.914 122.848 152.348 122.848 152.86V152.906Z" fill="white"/>
</svg>
