<svg width="350" height="85" viewBox="0 0 350 85" fill="none" xmlns="http://www.w3.org/2000/svg">
<path d="M36.9861 24.9781C37.3409 23.7682 38.4508 22.937 39.7116 22.937H44.8803C45.2545 22.937 45.5264 23.2926 45.4285 23.6537L38.4882 49.2423C38.1525 50.4799 37.0293 51.339 35.747 51.339H31.8736C30.5925 51.339 29.47 50.4814 29.1333 49.2454L26.7924 40.6528L28.9113 41.4928C30.4655 42.109 32.2131 41.2561 32.6835 39.6517L36.9861 24.9781Z" fill="#002E84"/>
<path d="M25.81 37.1444C28.7059 36.3684 30.4245 33.3913 29.6485 30.495C28.8726 27.5987 25.8959 25.8799 22.9999 26.656L25.81 37.1444Z" fill="#002E84"/>
<path d="M49.049 59.896C48.6942 61.1058 47.5843 61.937 46.3235 61.937L41.1548 61.937C40.7806 61.937 40.5086 61.5815 40.6066 61.2203L47.5469 35.6317C47.8826 34.3942 49.0058 33.535 50.2881 33.535L54.1615 33.535C55.4426 33.535 56.5651 34.3926 56.9018 35.6287L59.2427 44.2212L57.1238 43.3812C55.5696 42.765 53.822 43.6179 53.3516 45.2223L49.049 59.896Z" fill="#002E84"/>
<path d="M60.2251 47.7296C57.3292 48.5056 55.6106 51.4827 56.3866 54.379C57.1625 57.2753 60.1392 58.9941 63.0352 58.218L60.2251 47.7296Z" fill="#002E84"/>
<path d="M79.7292 54.2995C79.3609 54.2995 79.0684 54.202 78.8517 54.007C78.6351 53.812 78.4834 53.5845 78.3967 53.3245L71.7667 32.5245C71.7234 32.4162 71.7017 32.3187 71.7017 32.232C71.7017 32.0587 71.7667 31.907 71.8967 31.777C72.0484 31.6253 72.2217 31.5495 72.4167 31.5495H76.4467C76.7934 31.5495 77.0642 31.647 77.2592 31.842C77.4542 32.037 77.5734 32.2212 77.6167 32.3945L82.2317 47.4095L86.8142 32.3945C86.8792 32.2212 86.9984 32.037 87.1717 31.842C87.3667 31.647 87.6376 31.5495 87.9842 31.5495H92.0467C92.2201 31.5495 92.3717 31.6253 92.5017 31.777C92.6534 31.907 92.7292 32.0587 92.7292 32.232C92.7292 32.3187 92.7076 32.4162 92.6642 32.5245L86.0342 53.3245C85.9692 53.5845 85.8284 53.812 85.6117 54.007C85.3951 54.202 85.0917 54.2995 84.7017 54.2995H79.7292Z" fill="#002E84"/>
<path d="M101.46 54.6245C98.9036 54.6245 96.867 53.9312 95.3503 52.5445C93.8336 51.1578 93.0428 49.0995 92.9778 46.3695C92.9778 46.2178 92.9778 46.0228 92.9778 45.7845C92.9778 45.5462 92.9778 45.362 92.9778 45.232C93.0428 43.5203 93.422 42.0578 94.1153 40.8445C94.8303 39.6095 95.8053 38.6778 97.0403 38.0495C98.297 37.3995 99.7595 37.0745 101.428 37.0745C103.334 37.0745 104.905 37.4537 106.14 38.212C107.397 38.9703 108.339 39.9995 108.968 41.2995C109.596 42.5995 109.91 44.0837 109.91 45.752V46.532C109.91 46.7703 109.834 46.9653 109.683 47.117C109.531 47.2687 109.336 47.3445 109.098 47.3445H98.6978C98.6978 47.3662 98.6978 47.3987 98.6978 47.442C98.6978 47.4853 98.6978 47.5287 98.6978 47.572C98.7195 48.2003 98.8278 48.7745 99.0228 49.2945C99.2395 49.8145 99.5428 50.2262 99.9328 50.5295C100.344 50.8328 100.843 50.9845 101.428 50.9845C101.861 50.9845 102.219 50.9195 102.5 50.7895C102.804 50.6378 103.053 50.4753 103.248 50.302C103.443 50.107 103.594 49.9445 103.703 49.8145C103.898 49.5762 104.049 49.4353 104.158 49.392C104.288 49.327 104.483 49.2945 104.743 49.2945H108.773C108.989 49.2945 109.163 49.3595 109.293 49.4895C109.444 49.6195 109.509 49.7928 109.488 50.0095C109.466 50.3778 109.282 50.822 108.935 51.342C108.589 51.862 108.079 52.382 107.408 52.902C106.758 53.4003 105.934 53.812 104.938 54.137C103.941 54.462 102.782 54.6245 101.46 54.6245ZM98.6978 44.127H104.19V44.062C104.19 43.347 104.082 42.7403 103.865 42.242C103.67 41.722 103.356 41.3212 102.923 41.0395C102.511 40.7578 102.013 40.617 101.428 40.617C100.864 40.617 100.377 40.7578 99.9653 41.0395C99.5536 41.3212 99.2395 41.722 99.0228 42.242C98.8061 42.7403 98.6978 43.347 98.6978 44.062V44.127Z" fill="#002E84"/>
<path d="M113.77 54.2995C113.531 54.2995 113.336 54.2237 113.185 54.072C113.033 53.8987 112.957 53.7037 112.957 53.487V38.212C112.957 37.9953 113.033 37.8112 113.185 37.6595C113.336 37.4862 113.531 37.3995 113.77 37.3995H117.507C117.746 37.3995 117.941 37.4862 118.092 37.6595C118.266 37.8112 118.352 37.9953 118.352 38.212V39.512C118.916 38.8403 119.598 38.3203 120.4 37.952C121.223 37.5837 122.144 37.3995 123.162 37.3995H124.592C124.831 37.3995 125.026 37.4753 125.177 37.627C125.329 37.7787 125.405 37.9737 125.405 38.212V41.5595C125.405 41.7762 125.329 41.9712 125.177 42.1445C125.026 42.2962 124.831 42.372 124.592 42.372H121.44C120.551 42.372 119.858 42.6212 119.36 43.1195C118.883 43.5962 118.645 44.2787 118.645 45.167V53.487C118.645 53.7037 118.558 53.8987 118.385 54.072C118.233 54.2237 118.038 54.2995 117.8 54.2995H113.77Z" fill="#002E84"/>
<path d="M128.528 54.2995C128.29 54.2995 128.095 54.2237 127.943 54.072C127.791 53.8987 127.715 53.7037 127.715 53.487V38.212C127.715 37.9737 127.791 37.7787 127.943 37.627C128.095 37.4753 128.29 37.3995 128.528 37.3995H132.363C132.601 37.3995 132.796 37.4753 132.948 37.627C133.1 37.7787 133.175 37.9737 133.175 38.212V53.487C133.175 53.7037 133.1 53.8987 132.948 54.072C132.796 54.2237 132.601 54.2995 132.363 54.2995H128.528ZM128.495 34.962C128.257 34.962 128.062 34.8862 127.91 34.7345C127.759 34.5828 127.683 34.3878 127.683 34.1495V31.2245C127.683 31.0078 127.759 30.8237 127.91 30.672C128.062 30.4987 128.257 30.412 128.495 30.412H132.395C132.612 30.412 132.796 30.4987 132.948 30.672C133.121 30.8237 133.208 31.0078 133.208 31.2245V34.1495C133.208 34.3878 133.121 34.5828 132.948 34.7345C132.796 34.8862 132.612 34.962 132.395 34.962H128.495Z" fill="#002E84"/>
<path d="M139.745 54.2995C139.528 54.2995 139.333 54.2237 139.16 54.072C139.008 53.8987 138.932 53.7037 138.932 53.487V41.657H136.462C136.224 41.657 136.029 41.5812 135.877 41.4295C135.726 41.2778 135.65 41.0828 135.65 40.8445V38.212C135.65 37.9737 135.726 37.7787 135.877 37.627C136.029 37.4753 136.224 37.3995 136.462 37.3995H138.932V36.3595C138.932 34.8862 139.214 33.7053 139.777 32.817C140.362 31.907 141.186 31.257 142.247 30.867C143.309 30.4553 144.576 30.2495 146.05 30.2495H148.585C148.823 30.2495 149.018 30.3253 149.17 30.477C149.321 30.6287 149.397 30.8237 149.397 31.062V33.6945C149.397 33.9328 149.321 34.1278 149.17 34.2795C149.018 34.4312 148.823 34.507 148.585 34.507H146.31C145.573 34.507 145.053 34.6803 144.75 35.027C144.468 35.3737 144.327 35.872 144.327 36.522V37.3995H148.26C148.498 37.3995 148.693 37.4753 148.845 37.627C148.996 37.7787 149.072 37.9737 149.072 38.212V40.8445C149.072 41.0828 148.996 41.2778 148.845 41.4295C148.693 41.5812 148.498 41.657 148.26 41.657H144.327V53.487C144.327 53.7037 144.251 53.8987 144.1 54.072C143.948 54.2237 143.753 54.2995 143.515 54.2995H139.745Z" fill="#002E84"/>
<path d="M152.236 54.2995C151.998 54.2995 151.803 54.2237 151.651 54.072C151.5 53.8987 151.424 53.7037 151.424 53.487V38.212C151.424 37.9737 151.5 37.7787 151.651 37.627C151.803 37.4753 151.998 37.3995 152.236 37.3995H156.071C156.31 37.3995 156.505 37.4753 156.656 37.627C156.808 37.7787 156.884 37.9737 156.884 38.212V53.487C156.884 53.7037 156.808 53.8987 156.656 54.072C156.505 54.2237 156.31 54.2995 156.071 54.2995H152.236ZM152.204 34.962C151.966 34.962 151.771 34.8862 151.619 34.7345C151.467 34.5828 151.391 34.3878 151.391 34.1495V31.2245C151.391 31.0078 151.467 30.8237 151.619 30.672C151.771 30.4987 151.966 30.412 152.204 30.412H156.104C156.321 30.412 156.505 30.4987 156.656 30.672C156.83 30.8237 156.916 31.0078 156.916 31.2245V34.1495C156.916 34.3878 156.83 34.5828 156.656 34.7345C156.505 34.8862 156.321 34.962 156.104 34.962H152.204Z" fill="#002E84"/>
<path d="M168.523 54.6245C165.967 54.6245 163.93 53.9312 162.413 52.5445C160.897 51.1578 160.106 49.0995 160.041 46.3695C160.041 46.2178 160.041 46.0228 160.041 45.7845C160.041 45.5462 160.041 45.362 160.041 45.232C160.106 43.5203 160.485 42.0578 161.178 40.8445C161.893 39.6095 162.868 38.6778 164.103 38.0495C165.36 37.3995 166.822 37.0745 168.491 37.0745C170.397 37.0745 171.968 37.4537 173.203 38.212C174.46 38.9703 175.402 39.9995 176.031 41.2995C176.659 42.5995 176.973 44.0837 176.973 45.752V46.532C176.973 46.7703 176.897 46.9653 176.746 47.117C176.594 47.2687 176.399 47.3445 176.161 47.3445H165.761C165.761 47.3662 165.761 47.3987 165.761 47.442C165.761 47.4853 165.761 47.5287 165.761 47.572C165.782 48.2003 165.891 48.7745 166.086 49.2945C166.302 49.8145 166.606 50.2262 166.996 50.5295C167.407 50.8328 167.906 50.9845 168.491 50.9845C168.924 50.9845 169.282 50.9195 169.563 50.7895C169.867 50.6378 170.116 50.4753 170.311 50.302C170.506 50.107 170.657 49.9445 170.766 49.8145C170.961 49.5762 171.112 49.4353 171.221 49.392C171.351 49.327 171.546 49.2945 171.806 49.2945H175.836C176.052 49.2945 176.226 49.3595 176.356 49.4895C176.507 49.6195 176.572 49.7928 176.551 50.0095C176.529 50.3778 176.345 50.822 175.998 51.342C175.652 51.862 175.142 52.382 174.471 52.902C173.821 53.4003 172.997 53.812 172.001 54.137C171.004 54.462 169.845 54.6245 168.523 54.6245ZM165.761 44.127H171.253V44.062C171.253 43.347 171.145 42.7403 170.928 42.242C170.733 41.722 170.419 41.3212 169.986 41.0395C169.574 40.7578 169.076 40.617 168.491 40.617C167.927 40.617 167.44 40.7578 167.028 41.0395C166.617 41.3212 166.302 41.722 166.086 42.242C165.869 42.7403 165.761 43.347 165.761 44.062V44.127Z" fill="#002E84"/>
<path d="M180.833 54.2995C180.594 54.2995 180.399 54.2237 180.248 54.072C180.096 53.8987 180.02 53.7037 180.02 53.487V38.212C180.02 37.9953 180.096 37.8112 180.248 37.6595C180.399 37.4862 180.594 37.3995 180.833 37.3995H184.57C184.808 37.3995 185.003 37.4862 185.155 37.6595C185.328 37.8112 185.415 37.9953 185.415 38.212V39.512C185.978 38.8403 186.661 38.3203 187.463 37.952C188.286 37.5837 189.207 37.3995 190.225 37.3995H191.655C191.893 37.3995 192.088 37.4753 192.24 37.627C192.392 37.7787 192.468 37.9737 192.468 38.212V41.5595C192.468 41.7762 192.392 41.9712 192.24 42.1445C192.088 42.2962 191.893 42.372 191.655 42.372H188.503C187.614 42.372 186.921 42.6212 186.423 43.1195C185.946 43.5962 185.708 44.2787 185.708 45.167V53.487C185.708 53.7037 185.621 53.8987 185.448 54.072C185.296 54.2237 185.101 54.2995 184.863 54.2995H180.833Z" fill="#002E84"/>
<path d="M199.295 54.2995C199.122 54.2995 198.959 54.2345 198.807 54.1045C198.677 53.9528 198.612 53.7903 198.612 53.617C198.612 53.5087 198.623 53.4112 198.645 53.3245L206.282 32.4595C206.347 32.2212 206.477 32.0153 206.672 31.842C206.889 31.647 207.182 31.5495 207.55 31.5495H212.36C212.728 31.5495 213.01 31.647 213.205 31.842C213.422 32.0153 213.562 32.2212 213.627 32.4595L221.232 53.3245C221.276 53.4112 221.297 53.5087 221.297 53.617C221.297 53.7903 221.222 53.9528 221.07 54.1045C220.94 54.2345 220.777 54.2995 220.582 54.2995H216.585C216.26 54.2995 216.011 54.2237 215.837 54.072C215.686 53.8987 215.588 53.747 215.545 53.617L214.277 50.302H205.6L204.365 53.617C204.322 53.747 204.224 53.8987 204.072 54.072C203.921 54.2237 203.661 54.2995 203.292 54.2995H199.295ZM206.932 45.622H212.977L209.955 37.042L206.932 45.622Z" fill="#002E84"/>
<path d="M224.314 54.2995C224.076 54.2995 223.881 54.2237 223.729 54.072C223.577 53.8987 223.502 53.7037 223.502 53.487V32.037C223.502 31.7987 223.577 31.6037 223.729 31.452C223.881 31.3003 224.076 31.2245 224.314 31.2245H228.149C228.387 31.2245 228.582 31.3003 228.734 31.452C228.886 31.6037 228.962 31.7987 228.962 32.037V53.487C228.962 53.7037 228.886 53.8987 228.734 54.072C228.582 54.2237 228.387 54.2995 228.149 54.2995H224.314Z" fill="#002E84"/>
<path d="M233.613 54.2995C233.375 54.2995 233.18 54.2237 233.028 54.072C232.877 53.8987 232.801 53.7037 232.801 53.487V32.037C232.801 31.7987 232.877 31.6037 233.028 31.452C233.18 31.3003 233.375 31.2245 233.613 31.2245H237.448C237.687 31.2245 237.882 31.3003 238.033 31.452C238.185 31.6037 238.261 31.7987 238.261 32.037V53.487C238.261 53.7037 238.185 53.8987 238.033 54.072C237.882 54.2237 237.687 54.2995 237.448 54.2995H233.613Z" fill="#002E84"/>
<path d="M242.913 54.2995C242.674 54.2995 242.479 54.2237 242.328 54.072C242.176 53.8987 242.1 53.7037 242.1 53.487V38.212C242.1 37.9737 242.176 37.7787 242.328 37.627C242.479 37.4753 242.674 37.3995 242.913 37.3995H246.748C246.986 37.3995 247.181 37.4753 247.333 37.627C247.484 37.7787 247.56 37.9737 247.56 38.212V53.487C247.56 53.7037 247.484 53.8987 247.333 54.072C247.181 54.2237 246.986 54.2995 246.748 54.2995H242.913ZM242.88 34.962C242.642 34.962 242.447 34.8862 242.295 34.7345C242.144 34.5828 242.068 34.3878 242.068 34.1495V31.2245C242.068 31.0078 242.144 30.8237 242.295 30.672C242.447 30.4987 242.642 30.412 242.88 30.412H246.78C246.997 30.412 247.181 30.4987 247.333 30.672C247.506 30.8237 247.593 31.0078 247.593 31.2245V34.1495C247.593 34.3878 247.506 34.5828 247.333 34.7345C247.181 34.8862 246.997 34.962 246.78 34.962H242.88Z" fill="#002E84"/>
<path d="M256.47 54.6245C255.3 54.6245 254.249 54.4078 253.317 53.9745C252.407 53.5195 251.681 52.9128 251.14 52.1545C250.598 51.3962 250.327 50.5403 250.327 49.587C250.327 48.0487 250.955 46.8353 252.212 45.947C253.469 45.037 255.137 44.4195 257.217 44.0945L261.28 43.477V43.022C261.28 42.242 261.117 41.6462 260.792 41.2345C260.467 40.8228 259.871 40.617 259.005 40.617C258.398 40.617 257.9 40.7362 257.51 40.9745C257.141 41.2128 256.849 41.5378 256.632 41.9495C256.437 42.2312 256.166 42.372 255.82 42.372H252.18C251.941 42.372 251.757 42.307 251.627 42.177C251.497 42.0253 251.443 41.852 251.465 41.657C251.465 41.267 251.605 40.8228 251.887 40.3245C252.19 39.8045 252.645 39.2953 253.252 38.797C253.859 38.2987 254.639 37.887 255.592 37.562C256.545 37.237 257.705 37.0745 259.07 37.0745C260.456 37.0745 261.648 37.237 262.645 37.562C263.641 37.887 264.454 38.342 265.082 38.927C265.71 39.512 266.165 40.2053 266.447 41.007C266.75 41.787 266.902 42.6537 266.902 43.607V53.487C266.902 53.7037 266.815 53.8987 266.642 54.072C266.49 54.2237 266.306 54.2995 266.09 54.2995H262.32C262.081 54.2995 261.886 54.2237 261.735 54.072C261.583 53.8987 261.507 53.7037 261.507 53.487V52.3495C261.225 52.7612 260.846 53.1403 260.37 53.487C259.893 53.8337 259.33 54.1045 258.68 54.2995C258.051 54.5162 257.315 54.6245 256.47 54.6245ZM257.997 50.9195C258.625 50.9195 259.189 50.7895 259.687 50.5295C260.207 50.2478 260.608 49.8253 260.89 49.262C261.193 48.677 261.345 47.9512 261.345 47.0845V46.6295L258.582 47.117C257.564 47.2903 256.816 47.5612 256.34 47.9295C255.885 48.2762 255.657 48.6878 255.657 49.1645C255.657 49.5328 255.765 49.847 255.982 50.107C256.199 50.367 256.48 50.5728 256.827 50.7245C257.195 50.8545 257.585 50.9195 257.997 50.9195Z" fill="#002E84"/>
<path d="M271.382 54.2995C271.144 54.2995 270.949 54.2237 270.797 54.072C270.645 53.8987 270.569 53.7037 270.569 53.487V38.212C270.569 37.9737 270.645 37.7787 270.797 37.627C270.949 37.4753 271.144 37.3995 271.382 37.3995H275.119C275.358 37.3995 275.553 37.4753 275.704 37.627C275.878 37.7787 275.964 37.9737 275.964 38.212V39.447C276.506 38.7753 277.232 38.212 278.142 37.757C279.052 37.302 280.124 37.0745 281.359 37.0745C282.616 37.0745 283.721 37.3562 284.674 37.9195C285.649 38.4828 286.408 39.3062 286.949 40.3895C287.513 41.4728 287.794 42.8162 287.794 44.4195V53.487C287.794 53.7037 287.719 53.8987 287.567 54.072C287.415 54.2237 287.22 54.2995 286.982 54.2995H282.887C282.67 54.2995 282.475 54.2237 282.302 54.072C282.15 53.8987 282.074 53.7037 282.074 53.487V44.6145C282.074 43.5962 281.825 42.8162 281.327 42.2745C280.85 41.7112 280.135 41.4295 279.182 41.4295C278.294 41.4295 277.579 41.7112 277.037 42.2745C276.517 42.8162 276.257 43.5962 276.257 44.6145V53.487C276.257 53.7037 276.17 53.8987 275.997 54.072C275.845 54.2237 275.661 54.2995 275.444 54.2995H271.382Z" fill="#002E84"/>
<path d="M299.221 54.6245C297.617 54.6245 296.198 54.332 294.963 53.747C293.728 53.162 292.742 52.317 292.006 51.212C291.291 50.0853 290.901 48.742 290.836 47.182C290.814 46.8353 290.803 46.402 290.803 45.882C290.803 45.3403 290.814 44.8962 290.836 44.5495C290.901 42.9678 291.291 41.6245 292.006 40.5195C292.721 39.3928 293.696 38.537 294.931 37.952C296.187 37.367 297.617 37.0745 299.221 37.0745C300.716 37.0745 301.994 37.2912 303.056 37.7245C304.139 38.1362 305.006 38.6562 305.656 39.2845C306.327 39.9128 306.826 40.5628 307.151 41.2345C307.497 41.8845 307.682 42.4587 307.703 42.957C307.725 43.1737 307.649 43.3687 307.476 43.542C307.302 43.6937 307.107 43.7695 306.891 43.7695H302.763C302.525 43.7695 302.341 43.7153 302.211 43.607C302.081 43.4987 301.962 43.3362 301.853 43.1195C301.593 42.4478 301.257 41.9712 300.846 41.6895C300.456 41.4078 299.947 41.267 299.318 41.267C298.452 41.267 297.78 41.5487 297.303 42.112C296.848 42.6753 296.599 43.542 296.556 44.712C296.534 45.5787 296.534 46.3478 296.556 47.0195C296.621 48.2112 296.881 49.0778 297.336 49.6195C297.791 50.1612 298.452 50.432 299.318 50.432C299.99 50.432 300.521 50.2912 300.911 50.0095C301.301 49.7062 301.615 49.2295 301.853 48.5795C301.962 48.3628 302.081 48.2003 302.211 48.092C302.341 47.9837 302.525 47.9295 302.763 47.9295H306.891C307.107 47.9295 307.302 48.0053 307.476 48.157C307.649 48.3087 307.725 48.5037 307.703 48.742C307.682 49.0887 307.573 49.5112 307.378 50.0095C307.183 50.5078 306.88 51.0278 306.468 51.5695C306.057 52.1112 305.515 52.6095 304.843 53.0645C304.193 53.5195 303.402 53.8987 302.471 54.202C301.539 54.4837 300.456 54.6245 299.221 54.6245Z" fill="#002E84"/>
<path d="M318.423 54.6245C315.867 54.6245 313.83 53.9312 312.313 52.5445C310.797 51.1578 310.006 49.0995 309.941 46.3695C309.941 46.2178 309.941 46.0228 309.941 45.7845C309.941 45.5462 309.941 45.362 309.941 45.232C310.006 43.5203 310.385 42.0578 311.078 40.8445C311.793 39.6095 312.768 38.6778 314.003 38.0495C315.26 37.3995 316.722 37.0745 318.391 37.0745C320.297 37.0745 321.868 37.4537 323.103 38.212C324.36 38.9703 325.302 39.9995 325.931 41.2995C326.559 42.5995 326.873 44.0837 326.873 45.752V46.532C326.873 46.7703 326.797 46.9653 326.646 47.117C326.494 47.2687 326.299 47.3445 326.061 47.3445H315.661C315.661 47.3662 315.661 47.3987 315.661 47.442C315.661 47.4853 315.661 47.5287 315.661 47.572C315.682 48.2003 315.791 48.7745 315.986 49.2945C316.202 49.8145 316.506 50.2262 316.896 50.5295C317.307 50.8328 317.806 50.9845 318.391 50.9845C318.824 50.9845 319.182 50.9195 319.463 50.7895C319.767 50.6378 320.016 50.4753 320.211 50.302C320.406 50.107 320.557 49.9445 320.666 49.8145C320.861 49.5762 321.012 49.4353 321.121 49.392C321.251 49.327 321.446 49.2945 321.706 49.2945H325.736C325.952 49.2945 326.126 49.3595 326.256 49.4895C326.407 49.6195 326.472 49.7928 326.451 50.0095C326.429 50.3778 326.245 50.822 325.898 51.342C325.552 51.862 325.042 52.382 324.371 52.902C323.721 53.4003 322.897 53.812 321.901 54.137C320.904 54.462 319.745 54.6245 318.423 54.6245ZM315.661 44.127H321.153V44.062C321.153 43.347 321.045 42.7403 320.828 42.242C320.633 41.722 320.319 41.3212 319.886 41.0395C319.474 40.7578 318.976 40.617 318.391 40.617C317.827 40.617 317.34 40.7578 316.928 41.0395C316.517 41.3212 316.202 41.722 315.986 42.242C315.769 42.7403 315.661 43.347 315.661 44.062V44.127Z" fill="#002E84"/>
</svg>
