<svg width="143" height="141" viewBox="0 0 143 141" fill="none" xmlns="http://www.w3.org/2000/svg">
<path d="M60.0051 40.5032C60.614 38.4266 62.5189 37 64.6829 37H73.5542C74.1965 37 74.6633 37.6103 74.4952 38.2302L62.5832 82.1492C62.0071 84.2733 60.0792 85.7479 57.8784 85.7479H51.2302C49.0314 85.7479 47.1048 84.2759 46.5268 82.1544L42.5091 67.4065L46.1458 68.8484C48.8134 69.906 51.8129 68.442 52.6203 65.6884L60.0051 40.5032Z" fill="#002E84"/>
<path d="M40.8229 61.385C45.7934 60.053 48.7431 54.9433 47.4113 49.9723C46.0795 45.0012 40.9704 42.0511 35.9999 43.3831L40.8229 61.385Z" fill="#002E84"/>
<path d="M80.7093 100.435C80.1005 102.511 78.1955 103.938 76.0315 103.938L67.1602 103.938C66.5179 103.938 66.0511 103.327 66.2192 102.708L78.1312 58.7885C78.7073 56.6645 80.6352 55.1898 82.836 55.1898L89.4842 55.1898C91.683 55.1898 93.6097 56.6618 94.1876 58.7833L98.2053 73.5312L94.5686 72.0894C91.901 71.0318 88.9015 72.4957 88.0941 75.2494L80.7093 100.435Z" fill="#002E84"/>
<path d="M99.8915 79.5528C94.921 80.8848 91.9713 85.9945 93.3031 90.9655C94.635 95.9366 99.744 98.8867 104.714 97.5547L99.8915 79.5528Z" fill="#002E84"/>
</svg>
